<svg version="1.1" id="Layer_1" xmlns="http://www.w3.org/2000/svg" xmlns:xlink="http://www.w3.org/1999/xlink" x="0px" y="0px"
	 width="100%" viewBox="0 0 468 339" enable-background="new 0 0 468 339" xml:space="preserve">
<path fill="#000000" opacity="0.000000" stroke="none" 
	d="
M176.000000,1.000000 
	C193.354233,1.000000 210.708450,1.000000 228.868988,1.251267 
	C217.215942,9.076927 204.756607,16.651320 191.783432,24.538082 
	C230.960571,65.582748 251.670639,114.458633 251.797867,171.039551 
	C251.925262,227.700974 231.077576,276.507172 191.642578,317.943115 
	C201.346252,323.602539 210.638367,328.919159 219.809647,334.436676 
	C222.388672,335.988220 224.612976,338.129333 227.000000,340.000000 
	C151.752777,340.000000 76.505569,340.000000 1.000000,340.000000 
	C1.000000,287.979401 1.000000,235.958359 1.268669,183.129608 
	C5.097713,189.210205 8.725338,195.976318 15.212781,200.775375 
	C26.080082,208.814423 38.164143,210.510529 50.407162,205.950043 
	C65.834007,200.203598 76.591782,185.402237 74.189873,165.805328 
	C72.094505,148.709366 55.992924,134.396088 39.127735,134.059891 
	C22.918976,133.736771 9.120445,142.478027 2.856990,158.135025 
	C2.672161,158.597046 1.638106,158.719315 1.000000,159.000000 
	C1.000000,106.333313 1.000000,53.666634 1.000000,1.000000 
	C5.745442,1.000000 10.400058,1.000000 15.527355,1.468657 
	C16.000036,35.416748 16.000036,68.896179 16.000036,102.418861 
	C50.571365,94.067451 79.132370,103.645035 98.230530,133.318085 
	C114.144615,158.044022 114.169579,185.384872 97.665436,209.998444 
	C78.259323,238.939896 50.066227,248.335602 16.270252,239.768555 
	C16.270252,271.446198 16.270252,303.036713 16.270252,334.641174 
	C65.838326,334.641174 115.135323,334.641174 165.703125,334.641174 
	C163.198685,332.976990 161.787506,331.937164 160.283432,331.055878 
	C147.678879,323.670074 135.088959,316.258301 122.429085,308.968201 
	C114.714058,304.525604 106.883362,300.283905 98.866219,295.583282 
	C84.761932,295.198395 70.896049,295.182220 56.652588,294.930237 
	C56.274998,288.244629 56.274998,281.794769 56.274998,275.369354 
	C114.025124,267.392059 147.520966,225.635941 151.856583,181.533768 
	C154.203918,157.656555 149.384567,134.734222 135.777359,114.773277 
	C116.734421,86.838409 89.710396,71.031532 56.001453,67.076027 
	C56.001453,60.512367 55.898277,54.695518 56.047295,48.885139 
	C56.116295,46.194874 56.676804,43.517212 57.477478,40.905567 
	C73.815048,40.984913 89.689720,41.018269 105.564041,40.958572 
	C107.078377,40.952881 108.590530,40.365902 110.463860,40.021362 
	C111.555702,39.662384 112.324600,39.394245 113.013588,38.989937 
	C127.795341,30.315889 142.609970,21.696611 157.323135,12.907537 
	C163.658920,9.122781 169.780899,4.980085 176.000000,1.000000 
M191.478210,71.962639 
	C184.170898,59.762466 174.814774,49.227661 164.672394,39.372948 
	C164.061920,38.779785 161.800034,39.250546 160.698746,39.895702 
	C148.526855,47.026295 136.432632,54.289463 124.042892,61.680511 
	C158.748108,89.870071 177.483566,126.728081 177.576294,171.045456 
	C177.669189,215.452240 158.965469,252.327606 123.798637,280.766602 
	C136.662537,288.270905 149.247253,295.666046 161.934113,302.881622 
	C162.706436,303.320892 164.620773,302.702179 165.445099,301.957397 
	C177.718201,290.868866 187.657303,277.798889 195.933899,263.618225 
	C204.607910,248.756638 211.698563,233.110794 215.476700,216.128250 
	C218.538528,202.365479 221.490509,188.617615 220.989380,174.404617 
	C220.715775,166.644455 220.898514,158.811798 219.862640,151.148743 
	C218.473328,140.871307 216.813644,130.525543 213.997101,120.569221 
	C209.164047,103.484604 202.005051,87.297195 191.478210,71.962639 
z"/>
<path fill="#000000" opacity="0.000000" stroke="none" 
	d="
M469.000000,320.000000 
	C469.000000,326.655304 469.000000,333.310608 469.000000,340.000000 
	C390.312439,340.000000 311.624878,340.000000 232.129211,339.765533 
	C232.341690,338.050812 233.189880,336.407959 234.409180,335.115082 
	C248.729599,319.930420 259.703308,302.412872 268.899963,283.873688 
	C280.406036,260.679047 288.961456,236.473206 292.152679,210.495071 
	C294.172760,194.050735 296.119110,177.768265 295.212769,161.077362 
	C294.250854,143.362762 292.182831,125.875526 287.878418,108.750198 
	C282.614075,87.805527 274.749023,67.667015 264.088409,48.920181 
	C257.044952,36.534153 248.099258,25.227013 239.957291,13.470039 
	C237.043961,9.263197 233.989853,5.153845 231.000000,0.999998 
	C241.687561,1.000000 252.375122,1.000000 263.624695,1.336790 
	C272.422485,14.464837 280.658295,27.256094 289.132843,40.415936 
	C312.903717,40.800537 336.435852,40.816555 360.345825,41.068302 
	C360.815796,43.123550 360.986938,44.943008 360.988129,46.762581 
	C361.005432,73.221527 361.000000,99.680473 361.000000,126.139427 
	C361.000000,127.883804 361.000000,129.628189 361.000000,131.932281 
	C362.555878,131.075409 363.538422,130.573166 364.483337,130.007996 
	C376.869995,122.599396 389.235931,115.156021 401.637848,107.773056 
	C417.805359,98.148430 433.992859,88.557259 450.187256,78.977959 
	C456.436218,75.281563 462.727814,71.657181 469.000000,68.000000 
	C469.000000,78.354225 469.000000,88.708458 468.658142,99.629059 
	C456.436005,107.148651 444.507568,114.022469 432.740448,121.162094 
	C431.370270,121.993454 430.193970,124.261490 430.113922,125.920685 
	C429.596497,136.646042 429.142120,147.388153 429.175751,158.123169 
	C429.224518,173.681168 429.723999,189.237473 429.987823,204.795242 
	C430.066559,209.438126 430.000000,214.083481 430.000000,218.331680 
	C436.692871,222.303467 442.942261,226.073883 449.252411,229.739685 
	C455.804291,233.545853 462.415009,237.250793 469.000000,241.000000 
	C469.000000,251.354233 469.000000,261.708466 468.630188,272.525574 
	C463.394745,270.078857 458.535858,267.157837 453.662170,264.261719 
	C436.504700,254.066040 419.340698,243.881241 402.181885,233.687759 
	C388.568146,225.600250 374.958374,217.506042 361.000000,209.208633 
	C361.000000,236.519119 361.018127,263.310730 360.957001,290.102173 
	C360.953156,291.790466 360.331055,293.477325 359.532288,295.094421 
	C338.184814,295.015930 317.301605,294.987732 296.418640,295.041534 
	C294.900909,295.045471 293.384735,295.644714 291.554565,296.131012 
	C284.066010,309.115753 276.890717,321.936615 269.793060,334.618774 
	C313.162231,334.618774 357.005524,334.618774 401.080750,334.618774 
	C401.080750,316.594269 401.080750,298.949860 401.080750,281.111450 
	C402.130798,281.178497 403.098328,280.954956 403.714844,281.321625 
	C416.971161,289.205872 430.164673,297.195801 443.421448,305.079346 
	C451.905090,310.124390 460.470978,315.031189 469.000000,320.000000 
z"/>
<path fill="#00F2A2" opacity="1.000000" stroke="none" 
	d="
M57.014481,40.833832 
	C56.676804,43.517212 56.116295,46.194874 56.047295,48.885139 
	C55.898277,54.695518 56.001453,60.512367 56.001453,67.076027 
	C89.710396,71.031532 116.734421,86.838409 135.777359,114.773277 
	C149.384567,134.734222 154.203918,157.656555 151.856583,181.533768 
	C147.520966,225.635941 114.025124,267.392059 56.274998,275.369354 
	C56.274998,281.794769 56.274998,288.244629 57.017326,295.115234 
	C71.541306,295.674652 85.322968,295.813324 99.104630,295.951965 
	C106.883362,300.283905 114.714058,304.525604 122.429085,308.968201 
	C135.088959,316.258301 147.678879,323.670074 160.283432,331.055878 
	C161.787506,331.937164 163.198685,332.976990 165.703125,334.641174 
	C115.135323,334.641174 65.838326,334.641174 16.270252,334.641174 
	C16.270252,303.036713 16.270252,271.446198 16.270252,239.768555 
	C50.066227,248.335602 78.259323,238.939896 97.665436,209.998444 
	C114.169579,185.384872 114.144615,158.044022 98.230530,133.318085 
	C79.132370,103.645035 50.571365,94.067451 16.000036,102.418861 
	C16.000036,68.896179 16.000036,35.416748 16.000019,1.468657 
	C69.020897,1.000000 122.041786,1.000000 175.531342,1.000000 
	C169.780899,4.980085 163.658920,9.122781 157.323135,12.907537 
	C142.609970,21.696611 127.795341,30.315889 113.013588,38.989937 
	C112.324600,39.394245 111.555702,39.662384 109.989159,40.010212 
	C93.552597,40.018002 77.950798,39.982758 62.349319,40.037773 
	C60.570126,40.044044 58.792717,40.556232 57.014481,40.833832 
z"/>
<path fill="#00F2A2" opacity="1.000000" stroke="none" 
	d="
M230.666672,0.999998 
	C233.989853,5.153845 237.043961,9.263197 239.957291,13.470039 
	C248.099258,25.227013 257.044952,36.534153 264.088409,48.920181 
	C274.749023,67.667015 282.614075,87.805527 287.878418,108.750198 
	C292.182831,125.875526 294.250854,143.362762 295.212769,161.077362 
	C296.119110,177.768265 294.172760,194.050735 292.152679,210.495071 
	C288.961456,236.473206 280.406036,260.679047 268.899963,283.873688 
	C259.703308,302.412872 248.729599,319.930420 234.409180,335.115082 
	C233.189880,336.407959 232.341690,338.050812 231.660553,339.765533 
	C230.611115,340.000000 229.222214,340.000000 227.416656,340.000000 
	C224.612976,338.129333 222.388672,335.988220 219.809647,334.436676 
	C210.638367,328.919159 201.346252,323.602539 191.642578,317.943115 
	C231.077576,276.507172 251.925262,227.700974 251.797867,171.039551 
	C251.670639,114.458633 230.960571,65.582748 191.783432,24.538082 
	C204.756607,16.651320 217.215942,9.076927 229.337646,1.251267 
	C229.444443,1.000000 229.888901,1.000000 230.666672,0.999998 
z"/>
<path fill="#00F2A2" opacity="1.000000" stroke="none" 
	d="
M469.000000,67.531342 
	C462.727814,71.657181 456.436218,75.281563 450.187256,78.977959 
	C433.992859,88.557259 417.805359,98.148430 401.637848,107.773056 
	C389.235931,115.156021 376.869995,122.599396 364.483337,130.007996 
	C363.538422,130.573166 362.555878,131.075409 361.000000,131.932281 
	C361.000000,129.628189 361.000000,127.883804 361.000000,126.139427 
	C361.000000,99.680473 361.005432,73.221527 360.988129,46.762581 
	C360.986938,44.943008 360.815796,43.123550 359.980957,40.884079 
	C357.758606,40.309662 356.279022,40.021687 354.799286,40.020779 
	C332.830902,40.007278 310.862488,40.031807 288.894104,40.047348 
	C280.658295,27.256094 272.422485,14.464837 264.093353,1.336790 
	C309.354218,1.000000 354.708466,1.000000 400.531342,1.468657 
	C401.000000,21.197161 401.000000,40.457008 401.000000,60.273476 
	C402.524414,59.774109 403.642578,59.605106 404.554199,59.078548 
	C413.257416,54.051510 421.950287,49.005569 430.598053,43.883915 
	C443.419220,36.290565 456.201294,28.631247 469.000000,21.000000 
	C469.000000,36.354229 469.000000,51.708454 469.000000,67.531342 
z"/>
<path fill="#00F2A2" opacity="1.000000" stroke="none" 
	d="
M469.000000,319.531342 
	C460.470978,315.031189 451.905090,310.124390 443.421448,305.079346 
	C430.164673,297.195801 416.971161,289.205872 403.714844,281.321625 
	C403.098328,280.954956 402.130798,281.178497 401.080750,281.111450 
	C401.080750,298.949860 401.080750,316.594269 401.080750,334.618774 
	C357.005524,334.618774 313.162231,334.618774 269.793060,334.618774 
	C276.890717,321.936615 284.066010,309.115753 292.032227,296.137207 
	C313.266876,295.986298 333.710724,296.015625 354.154327,295.963348 
	C356.102417,295.958344 358.049194,295.443176 359.996582,295.164856 
	C360.331055,293.477325 360.953156,291.790466 360.957001,290.102173 
	C361.018127,263.310730 361.000000,236.519119 361.000000,209.208633 
	C374.958374,217.506042 388.568146,225.600250 402.181885,233.687759 
	C419.340698,243.881241 436.504700,254.066040 453.662170,264.261719 
	C458.535858,267.157837 463.394745,270.078857 468.630188,272.994202 
	C469.000000,288.354218 469.000000,303.708466 469.000000,319.531342 
z"/>
<path fill="#00F2A2" opacity="1.000000" stroke="none" 
	d="
M469.000000,240.531342 
	C462.415009,237.250793 455.804291,233.545853 449.252411,229.739685 
	C442.942261,226.073883 436.692871,222.303467 430.000000,218.331680 
	C430.000000,214.083481 430.066559,209.438126 429.987823,204.795242 
	C429.723999,189.237473 429.224518,173.681168 429.175751,158.123169 
	C429.142120,147.388153 429.596497,136.646042 430.113922,125.920685 
	C430.193970,124.261490 431.370270,121.993454 432.740448,121.162094 
	C444.507568,114.022469 456.436005,107.148651 468.658142,100.097717 
	C469.000000,146.687561 469.000000,193.375122 469.000000,240.531342 
z"/>
<path fill="#00F2A2" opacity="1.000000" stroke="none" 
	d="
M1.000000,159.468628 
	C1.638106,158.719315 2.672161,158.597046 2.856990,158.135025 
	C9.120445,142.478027 22.918976,133.736771 39.127735,134.059891 
	C55.992924,134.396088 72.094505,148.709366 74.189873,165.805328 
	C76.591782,185.402237 65.834007,200.203598 50.407162,205.950043 
	C38.164143,210.510529 26.080082,208.814423 15.212781,200.775375 
	C8.725338,195.976318 5.097713,189.210205 1.268669,182.660950 
	C1.000000,175.312424 1.000000,167.624832 1.000000,159.468628 
z"/>
<path fill="#000000" opacity="0.000000" stroke="none" 
	d="
M469.000000,20.530958 
	C456.201294,28.631247 443.419220,36.290565 430.598053,43.883915 
	C421.950287,49.005569 413.257416,54.051510 404.554199,59.078548 
	C403.642578,59.605106 402.524414,59.774109 401.000000,60.273476 
	C401.000000,40.457008 401.000000,21.197161 401.000000,1.468657 
	C423.553192,1.000000 446.106354,1.000000 469.000000,1.000000 
	C469.000000,7.349918 469.000000,13.705916 469.000000,20.530958 
z"/>
<path fill="#00F2A2" opacity="1.000000" stroke="none" 
	d="
M191.738312,72.229980 
	C202.005051,87.297195 209.164047,103.484604 213.997101,120.569221 
	C216.813644,130.525543 218.473328,140.871307 219.862640,151.148743 
	C220.898514,158.811798 220.715775,166.644455 220.989380,174.404617 
	C221.490509,188.617615 218.538528,202.365479 215.476700,216.128250 
	C211.698563,233.110794 204.607910,248.756638 195.933899,263.618225 
	C187.657303,277.798889 177.718201,290.868866 165.445099,301.957397 
	C164.620773,302.702179 162.706436,303.320892 161.934113,302.881622 
	C149.247253,295.666046 136.662537,288.270905 123.798637,280.766602 
	C158.965469,252.327606 177.669189,215.452240 177.576294,171.045456 
	C177.483566,126.728081 158.748108,89.870071 124.042892,61.680511 
	C136.432632,54.289463 148.526855,47.026295 160.698746,39.895702 
	C161.800034,39.250546 164.061920,38.779785 164.672394,39.372948 
	C174.814774,49.227661 184.170898,59.762466 191.738312,72.229980 
z"/>
<path fill="#13F3A9" opacity="1.000000" stroke="none" 
	d="
M57.477478,40.905563 
	C58.792717,40.556232 60.570126,40.044044 62.349319,40.037773 
	C77.950798,39.982758 93.552597,40.018002 109.628998,40.037636 
	C108.590530,40.365902 107.078377,40.952881 105.564041,40.958572 
	C89.689720,41.018269 73.815048,40.984913 57.477478,40.905563 
z"/>
<path fill="#12F3A9" opacity="1.000000" stroke="none" 
	d="
M98.866211,295.583313 
	C85.322968,295.813324 71.541306,295.674652 57.394913,295.351013 
	C70.896049,295.182220 84.761932,295.198395 98.866211,295.583313 
z"/>
<path fill="#13F3A9" opacity="1.000000" stroke="none" 
	d="
M289.132843,40.415932 
	C310.862488,40.031807 332.830902,40.007278 354.799286,40.020779 
	C356.279022,40.021687 357.758606,40.309662 359.603119,40.648346 
	C336.435852,40.816555 312.903717,40.800537 289.132843,40.415932 
z"/>
<path fill="#12F3A9" opacity="1.000000" stroke="none" 
	d="
M359.532288,295.094421 
	C358.049194,295.443176 356.102417,295.958344 354.154327,295.963348 
	C333.710724,296.015625 313.266876,295.986298 292.345459,295.973328 
	C293.384735,295.644714 294.900909,295.045471 296.418640,295.041534 
	C317.301605,294.987732 338.184814,295.015930 359.532288,295.094421 
z"/>
</svg>